<svg class="diagram-root" style="background: #f5f6f6" xmlns="http://www.w3.org/2000/svg" xmlns:xlink="http://www.w3.org/1999/xlink"><style>.diagram-root { font-family: "Helvetica Neue", sans-serif; font-size: 12px; } .t { overflow: visible; } .t-bg { y: 40; fill: #fff;   } .th { fill: #005aa0;   } .tht { fill: #fff; font-size: 14px;  } .tf { fill: #323c46; overflow: visible; } .tf.pk { fill: #005aa0; font-weight: bold; } .tf.fk { font-weight: bold; } .ty { fill: #adb1b5; font-weight: normal; text-anchor: end; } .r { fill: transparent; stroke: #c3c3c3; stroke-width: 1; } .l { stroke: 1; } .i { fill: #c2c7ce; stroke: #c2c7ce; } .i.ix { fill: #afb3b6; stroke: #000; } .fa { fill: transparent; overflow: visible; } .fa .bg.hover { fill: #f7f7f7; } .c { cy: 12; r: 4; stroke: #d2d2dc; fill: #d2d2dc; } .hr { fill: transparent; stroke: #323c46; stroke-opacity: 0.035; stroke-width: 13; } .dc { stroke: #fa5a3c; fill: #fa5a3c; } .x { stroke: white; stroke-width: 1; } .hl .th { fill: #1b9bff; } .hl .tht {  } .fhl .bg { fill: #e7f4ff; } .fhls .bg {  } .r.hl { stroke: #1b9bff; } .dim { opacity: 0.25; }</style><g class="drawing-wrapper" transform="translate(160.25, 44) scale(1,1)"><g class="rs"><path d="M 120 43 m -1, 0 a 1,1 0 1,0 2,0 a 1,1 0 1,0 -2,0 M 120 43 m -0.5, 0 a 0.5,0.5 0 1,0 1,0 a 0.5,0.5 0 1,0 -1,0  M120 43 L120 43 108 43 M 120 49 m -1, 0 a 1,1 0 1,0 2,0 a 1,1 0 1,0 -2,0 M 120 49 m -0.5, 0 a 0.5,0.5 0 1,0 1,0 a 0.5,0.5 0 1,0 -1,0  M120 49 L120 49 113 43 120 37 M 120 37 m -1, 0 a 1,1 0 1,0 2,0 a 1,1 0 1,0 -2,0 M 120 37 m -0.5, 0 a 0.5,0.5 0 1,0 1,0 a 0.5,0.5 0 1,0 -1,0  M108 43 Q 90.29 43, 72.57 173.63 T 37.129999999999995 304.25 M 25.13 304.25 m -1, 0 a 1,1 0 1,0 2,0 a 1,1 0 1,0 -2,0 M 25.13 304.25 m -0.5, 0 a 0.5,0.5 0 1,0 1,0 a 0.5,0.5 0 1,0 -1,0  M25.13 304.25 L25.13 304.25 37.129999999999995 304.25 M31.13 310.25 L31.13 310.25 31.13 298.25" id="h3000826536" class="r"></path><path d="M 124 223 m -1, 0 a 1,1 0 1,0 2,0 a 1,1 0 1,0 -2,0 M 124 223 m -0.5, 0 a 0.5,0.5 0 1,0 1,0 a 0.5,0.5 0 1,0 -1,0  M124 223 L124 223 112 223 M 124 229 m -1, 0 a 1,1 0 1,0 2,0 a 1,1 0 1,0 -2,0 M 124 229 m -0.5, 0 a 0.5,0.5 0 1,0 1,0 a 0.5,0.5 0 1,0 -1,0  M124 229 L124 229 117 223 124 217 M 124 217 m -1, 0 a 1,1 0 1,0 2,0 a 1,1 0 1,0 -2,0 M 124 217 m -0.5, 0 a 0.5,0.5 0 1,0 1,0 a 0.5,0.5 0 1,0 -1,0  M112 223 Q 93.29 223, 74.57 263.63 T 37.129999999999995 304.25 M 25.13 304.25 m -1, 0 a 1,1 0 1,0 2,0 a 1,1 0 1,0 -2,0 M 25.13 304.25 m -0.5, 0 a 0.5,0.5 0 1,0 1,0 a 0.5,0.5 0 1,0 -1,0  M25.13 304.25 L25.13 304.25 37.129999999999995 304.25 M31.13 310.25 L31.13 310.25 31.13 298.25" id="h3177548053" class="r"></path><path d="M 128 392 m -1, 0 a 1,1 0 1,0 2,0 a 1,1 0 1,0 -2,0 M 128 392 m -0.5, 0 a 0.5,0.5 0 1,0 1,0 a 0.5,0.5 0 1,0 -1,0  M128 392 L128 392 116 392 M 128 398 m -1, 0 a 1,1 0 1,0 2,0 a 1,1 0 1,0 -2,0 M 128 398 m -0.5, 0 a 0.5,0.5 0 1,0 1,0 a 0.5,0.5 0 1,0 -1,0  M128 398 L128 398 121 392 128 386 M 128 386 m -1, 0 a 1,1 0 1,0 2,0 a 1,1 0 1,0 -2,0 M 128 386 m -0.5, 0 a 0.5,0.5 0 1,0 1,0 a 0.5,0.5 0 1,0 -1,0  M116 392 Q 96.29 392, 76.57 348.13 T 37.129999999999995 304.25 M 25.13 304.25 m -1, 0 a 1,1 0 1,0 2,0 a 1,1 0 1,0 -2,0 M 25.13 304.25 m -0.5, 0 a 0.5,0.5 0 1,0 1,0 a 0.5,0.5 0 1,0 -1,0  M25.13 304.25 L25.13 304.25 37.129999999999995 304.25 M31.13 310.25 L31.13 310.25 31.13 298.25" id="h1139284389" class="r"></path><path d="M 278.73 417 m -1, 0 a 1,1 0 1,0 2,0 a 1,1 0 1,0 -2,0 M 278.73 417 m -0.5, 0 a 0.5,0.5 0 1,0 1,0 a 0.5,0.5 0 1,0 -1,0  M278.73 417 L278.73 417 290.73 417 M 278.73 423 m -1, 0 a 1,1 0 1,0 2,0 a 1,1 0 1,0 -2,0 M 278.73 423 m -0.5, 0 a 0.5,0.5 0 1,0 1,0 a 0.5,0.5 0 1,0 -1,0  M278.73 423 L278.73 423 285.73 417 278.73 411 M 278.73 411 m -1, 0 a 1,1 0 1,0 2,0 a 1,1 0 1,0 -2,0 M 278.73 411 m -0.5, 0 a 0.5,0.5 0 1,0 1,0 a 0.5,0.5 0 1,0 -1,0  M290.73 417 Q 317.55 417, 344.37 467 T 398 517 M 410 517 m -1, 0 a 1,1 0 1,0 2,0 a 1,1 0 1,0 -2,0 M 410 517 m -0.5, 0 a 0.5,0.5 0 1,0 1,0 a 0.5,0.5 0 1,0 -1,0  M410 517 L410 517 398 517 M404 523 L404 523 404 511" id="h1607168654" class="r"></path><path d="M 280.48 572.25 m -1, 0 a 1,1 0 1,0 2,0 a 1,1 0 1,0 -2,0 M 280.48 572.25 m -0.5, 0 a 0.5,0.5 0 1,0 1,0 a 0.5,0.5 0 1,0 -1,0  M280.48 572.25 L280.48 572.25 292.48 572.25 M 280.48 578.25 m -1, 0 a 1,1 0 1,0 2,0 a 1,1 0 1,0 -2,0 M 280.48 578.25 m -0.5, 0 a 0.5,0.5 0 1,0 1,0 a 0.5,0.5 0 1,0 -1,0  M280.48 578.25 L280.48 578.25 287.48 572.25 280.48 566.25 M 280.48 566.25 m -1, 0 a 1,1 0 1,0 2,0 a 1,1 0 1,0 -2,0 M 280.48 566.25 m -0.5, 0 a 0.5,0.5 0 1,0 1,0 a 0.5,0.5 0 1,0 -1,0  M292.48 572.25 Q 318.86 572.25, 345.24 544.63 T 398 517 M 410 517 m -1, 0 a 1,1 0 1,0 2,0 a 1,1 0 1,0 -2,0 M 410 517 m -0.5, 0 a 0.5,0.5 0 1,0 1,0 a 0.5,0.5 0 1,0 -1,0  M410 517 L410 517 398 517 M404 523 L404 523 404 511" id="h1397587031" class="r"></path><path d="M 129.75 597.25 m -1, 0 a 1,1 0 1,0 2,0 a 1,1 0 1,0 -2,0 M 129.75 597.25 m -0.5, 0 a 0.5,0.5 0 1,0 1,0 a 0.5,0.5 0 1,0 -1,0  M129.75 597.25 L129.75 597.25 117.75 597.25 M 129.75 603.25 m -1, 0 a 1,1 0 1,0 2,0 a 1,1 0 1,0 -2,0 M 129.75 603.25 m -0.5, 0 a 0.5,0.5 0 1,0 1,0 a 0.5,0.5 0 1,0 -1,0  M129.75 603.25 L129.75 603.25 122.75 597.25 129.75 591.25 M 129.75 591.25 m -1, 0 a 1,1 0 1,0 2,0 a 1,1 0 1,0 -2,0 M 129.75 591.25 m -0.5, 0 a 0.5,0.5 0 1,0 1,0 a 0.5,0.5 0 1,0 -1,0  M117.75 597.25 Q 97.6 597.25, 77.44 450.75 T 37.129999999999995 304.25 M 25.13 304.25 m -1, 0 a 1,1 0 1,0 2,0 a 1,1 0 1,0 -2,0 M 25.13 304.25 m -0.5, 0 a 0.5,0.5 0 1,0 1,0 a 0.5,0.5 0 1,0 -1,0  M25.13 304.25 L25.13 304.25 37.129999999999995 304.25 M31.13 310.25 L31.13 310.25 31.13 298.25" id="h2286254435" class="r"></path></g><g class="hrs"></g><g class="ts"><svg width="163.38" height="200" x="-138.25" y="247.25" id="h1639608377" class="t"><rect height="40" width="163.38" class="th"></rect><text x="13" y="25" class="tht">employees</text><rect height="160" width="163.38" class="t-bg" y="40"></rect><text x="13" y="61" class="tf pk">emp_no<tspan x="150.38" class="ty">int</tspan></text><path d="M7,14A2,2 0 0,1 5,12A2,2 0 0,1 7,10A2,2 0 0,1 9,12A2,2 0 0,1 7,14M12.65,10C11.83,7.67 9.61,6 7, 6A6, 6 0 0, 0 1, 12A6, 6 0 0, 0 7, 18C9.61, 18 11.83, 16.33 12.65, 14H17V18H21V14H23V10H12.65Z" class="i pk" transform="translate(117.706171875, 48) scale(0.65)"></path><text x="13" y="86" class="tf">birth_date<tspan x="150.38" class="ty">date</tspan></text><text x="13" y="111" class="tf">first_name<tspan x="150.38" class="ty">varchar(50)</tspan></text><text x="13" y="136" class="tf">last_name<tspan x="150.38" class="ty">varchar(50)</tspan></text><text x="13" y="161" class="tf">gender<tspan x="150.38" class="ty">varchar(5)</tspan></text><text x="13" y="186" class="tf">hire_date<tspan x="150.38" class="ty">date</tspan></text></svg><svg width="126.03" height="150" x="120" y="-14" id="h311790747" class="t"><rect height="40" width="126.03" class="th"></rect><text x="13" y="25" class="tht">titles</text><rect height="110" width="126.03" class="t-bg" y="40"></rect><text x="13" y="61" class="tf fk">emp_no<tspan x="113.03" class="ty">int</tspan></text><text x="13" y="86" class="tf">title<tspan x="113.03" class="ty">varchar(50)</tspan></text><text x="13" y="111" class="tf">from_date<tspan x="113.03" class="ty">date</tspan></text><text x="13" y="136" class="tf">to_date<tspan x="113.03" class="ty">date</tspan></text></svg><svg width="123.38" height="150" x="124" y="166" id="h2472833127" class="t"><rect height="40" width="123.38" class="th"></rect><text x="13" y="25" class="tht">salaries</text><rect height="110" width="123.38" class="t-bg" y="40"></rect><text x="13" y="61" class="tf fk">emp_no<tspan x="110.38" class="ty">int</tspan></text><text x="13" y="86" class="tf">salary<tspan x="110.38" class="ty">money</tspan></text><text x="13" y="111" class="tf">from_date<tspan x="110.38" class="ty">date</tspan></text><text x="13" y="136" class="tf">to_date<tspan x="110.38" class="ty">date</tspan></text></svg><svg width="170.73" height="100" x="410" y="460" id="h475896179" class="t"><rect height="40" width="170.73" class="th"></rect><text x="13" y="25" class="tht">departments</text><rect height="60" width="170.73" class="t-bg" y="40"></rect><text x="13" y="61" class="tf pk">dept_no<tspan x="157.73" class="ty">varchar(10)</tspan></text><path d="M7,14A2,2 0 0,1 5,12A2,2 0 0,1 7,10A2,2 0 0,1 9,12A2,2 0 0,1 7,14M12.65,10C11.83,7.67 9.61,6 7, 6A6, 6 0 0, 0 1, 12A6, 6 0 0, 0 7, 18C9.61, 18 11.83, 16.33 12.65, 14H17V18H21V14H23V10H12.65Z" class="i pk" transform="translate(76.37648437499999, 48) scale(0.65)"></path><text x="13" y="86" class="tf">dept_name<tspan x="157.73" class="ty">varchar(50)</tspan></text></svg><svg width="150.73" height="150" x="128" y="335" id="h1090417462" class="t"><rect height="40" width="150.73" class="th"></rect><text x="13" y="25" class="tht">dept_emp</text><rect height="110" width="150.73" class="t-bg" y="40"></rect><text x="13" y="61" class="tf fk">emp_no<tspan x="137.73" class="ty">int</tspan></text><text x="13" y="86" class="tf fk">dept_no<tspan x="137.73" class="ty">varchar(10)</tspan></text><text x="13" y="111" class="tf">from_date<tspan x="137.73" class="ty">date</tspan></text><text x="13" y="136" class="tf">to_date<tspan x="137.73" class="ty">date</tspan></text></svg><svg width="150.73" height="150" x="129.75" y="515.25" id="h1676682957" class="t"><rect height="40" width="150.73" class="th"></rect><text x="13" y="25" class="tht">dept_manager</text><rect height="110" width="150.73" class="t-bg" y="40"></rect><text x="13" y="61" class="tf fk">dept_no<tspan x="137.73" class="ty">varchar(10)</tspan></text><text x="13" y="86" class="tf fk">emp_no<tspan x="137.73" class="ty">int</tspan></text><text x="13" y="111" class="tf">from_date<tspan x="137.73" class="ty">date</tspan></text><text x="13" y="136" class="tf">to_date<tspan x="137.73" class="ty">date</tspan></text></svg></g></g><text class="qdbd-link" x="10" y="20">www.quickdatabasediagrams.com</text></svg>